<?xml version="1.0" encoding="utf-8"?>
<!-- Generator: Adobe Illustrator 24.0.0, SVG Export Plug-In . SVG Version: 6.00 Build 0)  -->
<svg version="1.1" id="レイヤー_1" xmlns="http://www.w3.org/2000/svg" xmlns:xlink="http://www.w3.org/1999/xlink" x="0px"
	 y="0px" width="200px" height="80px" viewBox="0 0 200 80" style="enable-background:new 0 0 200 80;" xml:space="preserve">
<style type="text/css">
	.st0{fill:#FFFFFF;}
	.st1{fill:#CC0000;}
	.st2{fill:#221714;}
</style>
<rect class="st0" width="200" height="80"/>
<title>ico_honda_wpc</title>
<g>
	<path class="st1" d="M137.7,42.9v-2l2-0.2c0.7-0.1,1-0.7,1.1-0.9l5-8.1c0.4-0.6,0-1.2-0.5-1.3l-2.6-0.3v-2H154c0.6,0,1,0.4,1.3,0.8
		l6.6,10.2c0.5,0.8,0.9,1.5,1.6,1.5l2.1,0.2v2h-12.8v-2l1.6-0.2c0.8-0.1,1.4-0.4,0.8-1.4l-0.6-0.9h-9.1l-0.7,1.1
		c-0.4,0.7,0,1.1,0.7,1.2l1.6,0.2v2H137.7 M147.2,35.7h5.7l-2.9-4.6L147.2,35.7"/>
	<path class="st1" d="M129.2,28.1h-14.6v2l1.8,0.2c0.7,0.1,1,0.6,1,1.3v8c0,0.5-0.2,1.1-0.8,1.2l-2,0.3v1.9h14.6
		c6.7,0,9.6-3.3,9.6-7.6C138.8,31.4,136,28.1,129.2,28.1 M127,40h-3.8v-9.1h3.8c3.6,0,5.1,0.8,5.1,4.6C132.1,39.2,130.5,40,127,40"
		/>
	<path class="st1" d="M35.1,42.9h11.8v-2l-2-0.2c-0.5-0.1-0.9-0.4-0.9-1.3v-2.4h9.1v2.3c0,0.7-0.1,1.3-0.9,1.4l-2.1,0.2v2H62v-2
		l-2.1-0.2c-0.4-0.1-0.9-0.4-0.9-1.2v-7.7c0-0.8,0.3-1.3,0.9-1.4l2.1-0.2v-2H50.1v2l2.1,0.3c0.7,0.1,0.9,0.6,0.9,1.4V34H44v-2.3
		c0-0.9,0.3-1.3,1-1.3l2-0.2v-2H35.1v2l2,0.2c0.8,0.1,1,0.7,1,1.4v7.5c0,0.8-0.2,1.3-1,1.4l-2,0.2V42.9"/>
	<path class="st1" d="M62.6,35.4c0-4.6,3.7-7.9,12.1-7.9c8.3,0,12.1,3.3,12.1,7.9c0,4.8-3.7,8-12.1,8C66.3,43.4,62.6,40.2,62.6,35.4
		 M74.6,30.4c-3.4,0-5.3,1.3-5.3,5.1c0,3.9,1.9,5.1,5.3,5.1c3.4,0,5.3-1.2,5.3-5.1C79.9,31.6,78,30.4,74.6,30.4"/>
	<path class="st1" d="M87.4,42.9h9.5v-2l-2-0.2c-0.6-0.1-0.9-0.5-0.9-1.2v-7.5l7.9,10.4c0.3,0.4,0.7,0.6,1.2,0.6h7.4V31.7
		c0-0.5,0.1-1.2,0.9-1.3l2.1-0.2v-2h-9.5v2l2.1,0.3c0.7,0.1,0.9,0.7,0.9,1.4V39L99,28.7c-0.3-0.4-0.7-0.6-1.2-0.6H87.4v2l2,0.2
		c0.7,0.1,1,0.5,1,1.4v7.5c0,0.9-0.2,1.3-1,1.4l-1.9,0.2V42.9"/>
	<polygon class="st2" points="39.9,49.2 42.9,49.2 42.9,55.3 44,55.3 44,49.2 47,49.2 47,48.3 39.9,48.3 	"/>
	<path class="st2" d="M51.3,49.9c-1,0-1.7,0.4-2.2,1.1v-2.6h-1v7h1v-2.5c0-1.7,1.1-2.3,2.1-2.3c1,0,1.6,0.6,1.6,1.8v3h1v-3
		C53.8,50.7,52.9,49.9,51.3,49.9z"/>
	<path class="st2" d="M76.9,50.4c-0.6-0.5-1.4-0.8-2.4-0.8c-1,0-1.9,0.3-2.4,0.8c-0.6,0.5-0.8,1.2-0.8,2.1c0,0.9,0.3,1.6,0.8,2.1
		s1.4,0.8,2.4,0.8c2.1,0,3.3-1,3.3-2.9C77.7,51.6,77.4,50.9,76.9,50.4z M76.6,52.5c0.1,1.1-0.8,2.1-1.9,2.1c-0.1,0-0.2,0-0.3,0
		c-0.6,0-1.2-0.2-1.6-0.6c-0.4-0.4-0.6-1-0.5-1.5c0-1.3,0.8-2.1,2.1-2.1C75.8,50.4,76.6,51.2,76.6,52.5L76.6,52.5z"/>
	<path class="st2" d="M108.1,50.4c-0.6-0.5-1.4-0.8-2.4-0.8c-1,0-1.9,0.3-2.4,0.8c-0.6,0.5-0.9,1.3-0.8,2.1c0,1.9,1.2,2.9,3.3,2.9
		c1,0,1.9-0.3,2.4-0.8s0.8-1.2,0.8-2.1S108.7,50.9,108.1,50.4z M104.1,51c0.4-0.4,1-0.6,1.6-0.6c1.4,0,2.2,0.8,2.2,2.1
		c0.1,1.1-0.8,2.1-1.9,2.1c-0.1,0-0.2,0-0.3,0c-1.3,0-2.2-0.8-2.2-2.1C103.5,52,103.7,51.4,104.1,51z"/>
	<path class="st2" d="M129.2,49.7c-1,0.1-1.6,0.7-2,1.4v-1.3h-0.9v5.6h1.1v-2.9c0-0.5,0.2-1,0.6-1.3c0.4-0.3,0.9-0.5,1.4-0.5h0.5
		v-0.9h0C129.7,49.7,129.5,49.7,129.2,49.7z"/>
	<path class="st2" d="M67.5,48.3l-3.2,0v7h1.1v-2.7h2.2c0.9,0,1.7-0.2,2.2-0.6c0.5-0.4,0.7-1,0.7-1.6c0-0.5-0.2-1-0.5-1.3
		C69.6,48.6,68.7,48.3,67.5,48.3z M69.4,50.4c0,1-0.6,1.4-1.8,1.4h-2.1v-2.7h2.1C68.8,49.1,69.4,49.5,69.4,50.4z"/>
	<path class="st2" d="M123.9,49.3c-0.7-0.6-1.7-0.9-3.1-0.9h-3.1v7h3.1c1.3,0,2.3-0.3,3-0.9c0.7-0.6,1.1-1.5,1.1-2.6
		S124.5,49.8,123.9,49.3z M118.7,49.1h1.8c1.3,0,2.1,0.2,2.6,0.7c0.4,0.4,0.6,1,0.6,2c0,1.8-1,2.7-3,2.7h-1.9V49.1z"/>
	<path class="st2" d="M143.1,54.1v-2.3c0-0.6,0-1.1-0.6-1.5c-0.5-0.4-1.3-0.6-2.1-0.6s-2.3,0.2-2.5,1.4h1.2c0.2-0.4,0.7-0.6,1.4-0.6
		c1,0,1.7,0.4,1.7,1.3v0.2h-0.9c-1,0-2.4,0-3.1,0.8c-0.3,0.3-0.4,0.6-0.4,1c0,1,0.9,1.8,2.2,1.8c1,0,1.7-0.2,2.2-0.9
		c0,0.3,0,0.6,0.1,0.8h1C143.1,54.9,143.1,54.5,143.1,54.1z M142,52.8c0,1.2-0.6,1.8-1.9,1.8c-0.9,0-1.4-0.4-1.4-1
		c0-0.2,0.1-0.4,0.2-0.6c0.4-0.4,1.4-0.5,2.1-0.5h1V52.8z"/>
	<path class="st2" d="M151.4,49.7c-1.2,0-1.7,0.7-2,1.3c-0.3-0.8-1-1.3-1.9-1.3c-0.8,0-1.6,0.4-1.9,1.2c0,0,0-0.5,0-1.1h-1
		c0,0.4,0,0.9,0,1.4v4.2h1v-2.7c0-1.5,0.8-2.2,1.7-2.2c0.9,0,1.3,0.7,1.3,2.1v2.8h1v-2.7c0-0.8,0.2-1.4,0.6-1.8
		c0.3-0.3,0.6-0.4,1-0.4c0.5,0,0.8,0.2,1,0.5c0.2,0.4,0.3,0.8,0.3,1.6v2.8h1v-3.2c0-0.8-0.2-1.5-0.6-1.9
		C152.6,49.8,152,49.6,151.4,49.7z"/>
	<path class="st2" d="M159,52.3l-1.7-0.4c-0.8-0.2-1.2-0.4-1.2-0.8c0-0.5,0.7-0.8,1.6-0.8c0.8,0,1.3,0.2,1.5,0.6h1.1
		c-0.1-0.5-0.4-0.9-0.8-1.1c-0.5-0.3-1.3-0.3-1.8-0.3c-0.6,0-1.3,0.1-1.8,0.4c-0.5,0.3-0.9,0.7-0.9,1.3c0,0.7,0.5,1.2,1.5,1.4
		l1.6,0.4c0.6,0.1,1.2,0.3,1.2,0.8c0,0.6-0.6,0.9-1.7,0.9c-0.9,0-1.5-0.3-1.6-0.8h-1.2c0.2,1.3,1.5,1.5,2.7,1.5c2,0,2.9-0.6,2.9-1.7
		C160.5,52.9,160,52.5,159,52.3z"/>
	<path class="st2" d="M112.7,48.2c-0.6,0-1.1,0.1-1.5,0.4c-0.2,0.2-0.4,0.4-0.5,0.7c-0.1,0.4-0.1,0.8-0.1,1.1h-1.1v0.8h1.1v4.1h1.1
		v-4.1h1.9v-0.8h-1.9c0-0.8,0-1,0.3-1.2c0.2-0.1,0.4-0.2,0.9-0.2c0.3,0,0.6,0,0.8,0.1v-0.8C113.3,48.3,113,48.2,112.7,48.2z"/>
	<path class="st2" d="M86.1,52.2c-0.2,0.7-0.4,1.4-0.7,2.4l0,0c-0.2-0.8-0.5-1.5-0.7-2.3L84,50l0,0h-1.6l-0.7,2.3
		c-0.2,0.8-0.5,1.5-0.7,2.3l0,0c-0.3-0.9-0.5-1.7-0.7-2.4L79.5,50v0h-1.2l1.7,5.3l0,0h1.6l0.8-2.3c0.1-0.2,0.1-0.4,0.2-0.6
		c0.2-0.6,0.4-1.1,0.5-1.7l0,0c0.2,0.6,0.4,1.2,0.5,1.8l0.2,0.5l0.8,2.3l0,0h1.6L88,50v0h-1.2L86.1,52.2z"/>
	<path class="st2" d="M98.8,49.7c-1,0.1-1.6,0.7-2,1.4v-1.3h-0.9v5.6H97v-2.9c0-0.5,0.2-1,0.6-1.3c0.4-0.3,0.9-0.5,1.4-0.5h0.5v-0.9
		h0C99.2,49.7,99,49.7,98.8,49.7z"/>
	<path class="st2" d="M93.7,50.4c-0.5-0.5-1.2-0.8-2.1-0.8c-1.9,0-3,1.1-3,3c0,0.8,0.3,1.5,0.8,2c0.5,0.5,1.3,0.8,2.2,0.8
		c0.6,0,1.2-0.1,1.8-0.4c0.4-0.2,0.8-0.6,1-1.1h-1.2c-0.3,0.5-0.9,0.8-1.7,0.8c-0.7,0-1.4-0.3-1.7-1c-0.1-0.3-0.2-0.6-0.2-0.9h4.8
		v-0.3C94.5,51.6,94.2,50.9,93.7,50.4z M89.7,52.1c0-0.1,0-0.2,0.1-0.3c0.2-0.9,0.9-1.4,1.9-1.4c1.3,0,1.8,0.9,1.8,1.7L89.7,52.1z"
		/>
	<path class="st2" d="M135.6,50.4c-0.5-0.5-1.2-0.8-2.1-0.8c-1.9,0-3,1.1-3,3c0,0.8,0.3,1.5,0.8,2c0.5,0.5,1.3,0.8,2.2,0.8
		c0.6,0,1.2-0.1,1.8-0.4c0.4-0.2,0.8-0.6,1-1.1h-1.2c-0.3,0.5-0.9,0.8-1.7,0.8c-0.7,0-1.4-0.3-1.7-1c-0.1-0.3-0.2-0.6-0.2-0.9h4.8
		c0-0.2,0-0.5,0-0.7C136.3,51.5,136,50.9,135.6,50.4z M131.5,52.1c0-0.1,0-0.2,0.1-0.3c0.2-0.9,0.9-1.4,1.9-1.4
		c1.3,0,1.8,0.9,1.8,1.7L131.5,52.1z"/>
	<path class="st2" d="M60.2,50.4c-0.5-0.5-1.2-0.8-2.1-0.8c-1.9,0-3,1.1-3,3c0,0.8,0.3,1.5,0.8,2c0.5,0.5,1.3,0.8,2.2,0.8
		c0.6,0,1.2-0.1,1.8-0.4c0.4-0.2,0.8-0.6,1-1.1h-1.2c-0.3,0.5-0.9,0.8-1.7,0.8c-0.7,0-1.4-0.3-1.7-1c-0.1-0.3-0.2-0.6-0.2-0.9h4.8
		v-0.3C60.9,51.6,60.7,50.9,60.2,50.4z M56.1,52.1c0-0.1,0-0.2,0.1-0.3c0.2-0.9,0.9-1.4,1.9-1.4c1.3,0,1.8,0.9,1.8,1.7L56.1,52.1z"
		/>
</g>
</svg>
